<svg id="Layer_2" data-name="Layer 2" xmlns="http://www.w3.org/2000/svg" viewBox="0 0 329.83 330.11">
    <title>search</title>
    <path fill="white" d="M345.5,374.5l29-29s101.44,84.51,108,102c6,16-2,47-35,34S345.5,374.5,345.5,374.5Z" transform="translate(-154.5 -154.5)"/>
    <path fill="white" d="M270,154.5c-63.79,0-115.5,51.93-115.5,116s51.71,116,115.5,116,115.5-51.93,115.5-116S333.79,154.5,270,154.5Zm0,221.85c-58.27,0-105.5-47.44-105.5-106S211.73,164.44,270,164.44s105.5,47.44,105.5,106S328.27,376.35,270,376.35Z" transform="translate(-154.5 -154.5)"/>
    <path fill="white" d="M212.66,332a33.59,33.59,0,0,1-7.33-6.66,72.63,72.63,0,0,1-6-8,93,93,0,0,1-9.08-17.8,90.92,90.92,0,0,1-5.09-19.49,83.37,83.37,0,0,1-.32-20.28,75.61,75.61,0,0,1,15.27-37.17A88.87,88.87,0,0,1,214,208.28c2.49-2.19,5.24-4.06,7.91-6s5.59-3.51,8.41-5.18c-1.23,1.1-2.48,2.17-3.7,3.25s-2.53,2.06-3.68,3.23c-2.33,2.29-4.8,4.39-6.93,6.84-1.1,1.19-2.26,2.31-3.32,3.53l-3.08,3.71c-1.06,1.2-2,2.52-2.93,3.81l-1.42,1.92c-.24.33-.48.64-.71,1l-.63,1a82.21,82.21,0,0,0-8.66,16.86,77.55,77.55,0,0,0-2.8,9l-1,4.61-.67,4.66a81.19,81.19,0,0,0,0,18.89,100.31,100.31,0,0,0,3.87,18.66,111.77,111.77,0,0,0,7.21,17.86c.68,1.46,1.49,2.86,2.25,4.29s1.64,2.79,2.52,4.15c.43.69.87,1.37,1.34,2s.93,1.33,1.43,2A26.12,26.12,0,0,0,212.66,332Z" transform="translate(-154.5 -154.5)"/>
</svg>